<mxfile host="Electron" agent="Mozilla/5.0 (Windows NT 10.0; Win64; x64) AppleWebKit/537.36 (KHTML, like Gecko) draw.io/26.0.4 Chrome/128.0.6613.186 Electron/32.2.5 Safari/537.36" version="26.0.4">
  <diagram name="第 1 页" id="A2wYnKDMZFF023bxGnZ8">
    <mxGraphModel dx="607" dy="844" grid="1" gridSize="10" guides="1" tooltips="1" connect="1" arrows="1" fold="1" page="1" pageScale="1" pageWidth="827" pageHeight="1169" math="0" shadow="0">
      <root>
        <mxCell id="0" />
        <mxCell id="1" parent="0" />
        <mxCell id="tHCy42ypWK_uThyhraDl-21" value="RootBeanDefinition" style="shape=umlLifeline;perimeter=lifelinePerimeter;whiteSpace=wrap;html=1;container=1;dropTarget=0;collapsible=0;recursiveResize=0;outlineConnect=0;portConstraint=eastwest;newEdgeStyle={&quot;curved&quot;:0,&quot;rounded&quot;:0};fontSize=20;fillColor=#dae8fc;strokeColor=#6c8ebf;strokeWidth=2;" parent="1" vertex="1">
          <mxGeometry x="1500" y="120" width="360" height="650" as="geometry" />
        </mxCell>
        <mxCell id="tHCy42ypWK_uThyhraDl-22" value="" style="html=1;whiteSpace=wrap;fontSize=20;fillColor=#dae8fc;strokeColor=#6c8ebf;" parent="1" vertex="1">
          <mxGeometry x="1060" y="241.75" width="1240" height="788.25" as="geometry" />
        </mxCell>
        <mxCell id="tHCy42ypWK_uThyhraDl-36" value="&lt;span style=&quot;&quot;&gt;存在如下成员变量：&lt;/span&gt;&lt;div&gt;&lt;span style=&quot;&quot;&gt;&lt;div&gt;（1）BeanDefinitionHolder decoratedDefinition：&lt;/div&gt;&lt;div&gt;（2）AnnotatedElement qualifiedElement：&lt;/div&gt;&lt;div&gt;（3）boolean stale：&lt;/div&gt;&lt;div&gt;（4）boolean allowCaching = true：&lt;/div&gt;&lt;div&gt;&lt;span style=&quot;background-color: transparent;&quot;&gt;（5）&lt;/span&gt;&lt;span style=&quot;background-color: transparent;&quot;&gt;boolean isFactoryMethodUnique&lt;/span&gt;&lt;br&gt;&lt;/div&gt;&lt;div&gt;（6）&lt;span style=&quot;background-color: transparent;&quot;&gt;ResolvableType targetType&lt;font&gt;：&lt;/font&gt;&lt;/span&gt;&lt;/div&gt;&lt;/span&gt;&lt;span style=&quot;&quot;&gt;&lt;div&gt;（7）Class&amp;lt;?&amp;gt; resolvedTargetType：&lt;/div&gt;&lt;div&gt;（8）Boolean isFactoryBean：&lt;/div&gt;&lt;div&gt;（9）ResolvableType factoryMethodReturnType：&lt;/div&gt;&lt;div&gt;（10）Method factoryMethodToIntrospect：&lt;/div&gt;&lt;div&gt;（11）String resolvedDestroyMethodName：&lt;/div&gt;&lt;div&gt;（12）Object constructorArgumentLock = new Object()：&lt;/div&gt;&lt;div&gt;（13）Executable resolvedConstructorOrFactoryMethod：&lt;/div&gt;&lt;div&gt;（14）boolean constructorArgumentsResolved = false：&lt;/div&gt;&lt;div&gt;（15）Object[] resolvedConstructorArguments：&lt;/div&gt;&lt;div&gt;（16）Object[] preparedConstructorArguments：&lt;/div&gt;&lt;div&gt;（17）Object postProcessingLock = new Object()：&lt;/div&gt;&lt;div&gt;（18）&lt;span style=&quot;background-color: transparent; color: light-dark(rgb(0, 0, 0), rgb(255, 255, 255));&quot;&gt;boolean postProcessed = false：&lt;/span&gt;&lt;/div&gt;&lt;div&gt;&lt;span style=&quot;background-color: transparent; color: light-dark(rgb(0, 0, 0), rgb(255, 255, 255));&quot;&gt;（19）&lt;/span&gt;&lt;span style=&quot;background-color: transparent;&quot;&gt;Boolean beforeInstantiationResolved：&lt;/span&gt;&lt;/div&gt;&lt;div&gt;&lt;span style=&quot;background-color: transparent;&quot;&gt;（20）&lt;/span&gt;&lt;span style=&quot;background-color: transparent;&quot;&gt;Set&amp;lt;Member&amp;gt; externallyManagedConfigMembers：存储成员变量&lt;/span&gt;&lt;/div&gt;&lt;div&gt;&lt;span style=&quot;background-color: transparent;&quot;&gt;&lt;span style=&quot;white-space: pre;&quot;&gt;&#x9;&lt;/span&gt;---&lt;/span&gt;&lt;span style=&quot;background-color: transparent;&quot;&gt;@DubboReference，@Reference&lt;/span&gt;&lt;span style=&quot;background-color: transparent; color: light-dark(rgb(0, 0, 0), rgb(255, 255, 255));&quot;&gt;，&lt;/span&gt;&lt;span style=&quot;background-color: transparent; color: light-dark(rgb(0, 0, 0), rgb(255, 255, 255));&quot;&gt;ReferenceAnnotationBeanPostProcessor.postProcessMergedBeanDefinition方法中设置；&lt;/span&gt;&lt;/div&gt;&lt;div&gt;&lt;span style=&quot;background-color: transparent;&quot;&gt;&lt;span style=&quot;white-space: pre;&quot;&gt;&#x9;&lt;/span&gt;---&lt;/span&gt;&lt;span style=&quot;background-color: transparent;&quot;&gt;@Resource，&lt;/span&gt;&lt;span style=&quot;background-color: transparent; color: light-dark(rgb(0, 0, 0), rgb(255, 255, 255));&quot;&gt;CommonAnnotationBeanPostProcessor.postProcessMergedBeanDefinition方法中设置；&lt;/span&gt;&lt;/div&gt;&lt;div&gt;&lt;span style=&quot;background-color: transparent; color: light-dark(rgb(0, 0, 0), rgb(255, 255, 255));&quot;&gt;&lt;span style=&quot;white-space: pre;&quot;&gt;&#x9;&lt;/span&gt;---&lt;/span&gt;&lt;span style=&quot;background-color: transparent;&quot;&gt;@Autowired，&lt;/span&gt;&lt;span style=&quot;background-color: transparent;&quot;&gt;AutowiredAnnotationBeanPostProcessor.postProcessMergedBeanDefinition方法中设置；&lt;/span&gt;&lt;span style=&quot;background-color: transparent; color: light-dark(rgb(0, 0, 0), rgb(255, 255, 255));&quot;&gt;&lt;br&gt;&lt;/span&gt;&lt;/div&gt;&lt;div&gt;&lt;span style=&quot;background-color: transparent;&quot;&gt;（21）&lt;/span&gt;&lt;span style=&quot;background-color: transparent;&quot;&gt;Set&amp;lt;String&amp;gt; externallyManagedInitMethods：存储初始化方法&lt;/span&gt;&lt;/div&gt;&lt;div&gt;&lt;span style=&quot;background-color: transparent;&quot;&gt;&lt;span style=&quot;white-space: pre;&quot;&gt;&#x9;&lt;/span&gt;---&lt;/span&gt;&lt;span style=&quot;background-color: transparent;&quot;&gt;@PostConstruct，&lt;/span&gt;&lt;span style=&quot;background-color: transparent; color: light-dark(rgb(0, 0, 0), rgb(255, 255, 255));&quot;&gt;InitDestroyAnnotationBeanPostProcessor.postProcessMergedBeanDefinition方法中设置；&lt;/span&gt;&lt;/div&gt;&lt;/span&gt;&lt;span style=&quot;&quot;&gt;&lt;div&gt;&lt;span style=&quot;background-color: transparent;&quot;&gt;（22）&lt;/span&gt;&lt;span style=&quot;background-color: transparent;&quot;&gt;Set&amp;lt;String&amp;gt; externallyManagedDestroyMethods：存储销毁方法&lt;/span&gt;&lt;/div&gt;&lt;div&gt;&lt;div&gt;&lt;span style=&quot;background-color: transparent;&quot;&gt;&lt;span style=&quot;white-space: pre;&quot;&gt;&#x9;&lt;/span&gt;---&lt;/span&gt;&lt;span style=&quot;background-color: transparent;&quot;&gt;@PreDestroy，&lt;/span&gt;&lt;span style=&quot;background-color: transparent; color: light-dark(rgb(0, 0, 0), rgb(255, 255, 255));&quot;&gt;InitDestroyAnnotationBeanPostProcessor.postProcessMergedBeanDefinition方法中设置；&lt;/span&gt;&lt;/div&gt;&lt;/div&gt;&lt;/span&gt;&lt;/div&gt;" style="html=1;whiteSpace=wrap;fontSize=20;fillColor=#dae8fc;strokeColor=#6c8ebf;align=left;verticalAlign=top;" parent="1" vertex="1">
          <mxGeometry x="1080" y="290" width="1200" height="720" as="geometry" />
        </mxCell>
        <mxCell id="tHCy42ypWK_uThyhraDl-43" value="&lt;span style=&quot;font-size: 20px;&quot;&gt;成员变量用途&lt;/span&gt;" style="text;html=1;align=center;verticalAlign=middle;whiteSpace=wrap;rounded=0;fontColor=#FF0000;fontStyle=1" parent="1" vertex="1">
          <mxGeometry x="1377.5" y="250" width="605" height="26" as="geometry" />
        </mxCell>
      </root>
    </mxGraphModel>
  </diagram>
</mxfile>
